<svg width="177" height="34" viewBox="0 0 177 34" fill="none" xmlns="http://www.w3.org/2000/svg">
<path d="M9.15958 0.307129L7.76312 6.53571L1.22371 20.25L0.495117 10.75L9.15958 0.307129Z" fill="#101820"/>
<path d="M10.3702 0.0288086L25.6491 11.886L19.8347 24.4895L9.28809 6.59667L10.3702 0.0288086Z" fill="#101820"/>
<path d="M32.4674 11.1489L30.4816 25.1668L21.2314 24.7382L27.4351 12.4811L32.4674 11.1489Z" fill="#101820"/>
<path d="M8.3396 9.40967L2.2002 21.7775L18.3398 24.7597L8.3396 9.40967Z" fill="#101820"/>
<path d="M30.263 26.788L20.3021 26.6772L14.1377 33.0058L30.263 26.788Z" fill="#101820"/>
<path d="M2.00977 23.2896L18.2065 26.2896L10.4278 33.7111L2.00977 23.2896Z" fill="#101820"/>
<path d="M12.6279 0.0288086L27.2425 10.4538L32.0783 9.54668L12.6279 0.0288086Z" fill="#101820"/>
<path d="M73.5516 22.3659V25.0231H62.0049L59.3477 22.3659V11.8159H62.0049V22.3659H73.5516Z" fill="#101820"/>
<path d="M125.632 16.2588L123.596 18.2945L125.632 20.3266V25.0231H122.975V21.2016L121.396 19.6231H113.153V25.0266H110.496V11.8159H113.153V16.9659H121.396L122.975 15.3873V11.8195H125.632V16.2588Z" fill="#101820"/>
<path d="M148.884 14.5368V17.0439H160.427V19.7296H148.884V22.2368H160.273V24.9225H148.884V24.9296H148.62L146.198 22.5011V11.8511H160.273V14.5368H148.884Z" fill="#101820"/>
<path d="M176.523 22.3532V22.3746L173.952 24.946H165.266L162.673 22.3532V14.3817L165.266 11.7817H173.93L176.519 14.3782V14.3817H165.266V22.3532H176.523Z" fill="#101820"/>
<path d="M143.683 22.3939L143.687 22.7296L141.365 25.0511H128.126V22.3939H141.276V19.6511H130.404L128.126 17.3725V14.2261L130.522 11.8511H143.687L143.683 14.5082H130.783V16.9939H141.887L143.683 18.8189V22.3939Z" fill="#101820"/>
<path d="M88.4386 11.8169H78.0742L75.417 14.199V22.3669L78.3527 25.024H88.4386L91.0958 22.3669V14.199L88.4386 11.8169ZM88.4386 22.3669H78.0742V14.474H88.4386V22.3669Z" fill="#101820"/>
<path d="M56.7893 14.5082L54.1321 11.8511H41.1104V25.0796H54.1321L56.7893 22.4225V19.8046L55.6107 18.6046L56.7893 17.4011V14.5082ZM54.1321 22.4225H43.7676V19.9296H54.1321V22.4225ZM54.1321 17.2725H43.7676V14.5046H54.1321V17.2725Z" fill="#101820"/>
<path d="M96.2412 22.3669H107.784L105.127 25.024H96.5162L93.584 22.3669V14.199L96.2412 11.8169H105.127L107.784 14.474H96.2412V22.3669Z" fill="#101820"/>
</svg>
