<svg width="30" height="30" viewBox="0 0 30 30" fill="none" xmlns="http://www.w3.org/2000/svg">
<circle cx="15" cy="15" r="15" fill="#212121"/>
<path d="M21.2378 9.11668C20.0905 8.59027 18.8602 8.20243 17.5739 7.9803C17.5505 7.97601 17.5271 7.98673 17.515 8.00816C17.3568 8.28957 17.1815 8.65669 17.0588 8.94525C15.6753 8.73812 14.2989 8.73812 12.9437 8.94525C12.821 8.65028 12.6394 8.28957 12.4804 8.00816C12.4684 7.98744 12.445 7.97673 12.4215 7.9803C11.1359 8.20172 9.90567 8.58956 8.7577 9.11668C8.74776 9.12096 8.73925 9.12811 8.73359 9.13739C6.40004 12.6237 5.76079 16.0242 6.07439 19.3827C6.0758 19.3991 6.08503 19.4148 6.0978 19.4248C7.63741 20.5555 9.12878 21.2419 10.5925 21.6968C10.6159 21.704 10.6407 21.6954 10.6556 21.6761C11.0018 21.2033 11.3105 20.7048 11.5751 20.1805C11.5907 20.1498 11.5758 20.1133 11.5439 20.1012C11.0543 19.9155 10.5882 19.6891 10.1398 19.4319C10.1043 19.4112 10.1015 19.3605 10.1341 19.3362C10.2285 19.2655 10.3229 19.1919 10.413 19.1177C10.4293 19.1041 10.452 19.1012 10.4711 19.1098C13.417 20.4548 16.6062 20.4548 19.5172 19.1098C19.5364 19.1005 19.5591 19.1034 19.5761 19.1169C19.6662 19.1912 19.7606 19.2655 19.8557 19.3362C19.8883 19.3605 19.8862 19.4112 19.8507 19.4319C19.4023 19.6941 18.9361 19.9155 18.4459 20.1005C18.414 20.1126 18.3998 20.1498 18.4154 20.1805C18.6857 20.704 18.9943 21.2026 19.3342 21.6754C19.3484 21.6954 19.3739 21.704 19.3973 21.6968C20.8681 21.2419 22.3595 20.5555 23.8991 19.4248C23.9126 19.4148 23.9211 19.3998 23.9225 19.3834C24.2978 15.5007 23.2939 12.128 21.2612 9.1381C21.2562 9.12811 21.2477 9.12096 21.2378 9.11668ZM12.015 17.3377C11.1281 17.3377 10.3973 16.5235 10.3973 15.5235C10.3973 14.5236 11.114 13.7093 12.015 13.7093C12.9232 13.7093 13.6469 14.5307 13.6327 15.5235C13.6327 16.5235 12.9161 17.3377 12.015 17.3377ZM17.9961 17.3377C17.1092 17.3377 16.3784 16.5235 16.3784 15.5235C16.3784 14.5236 17.095 13.7093 17.9961 13.7093C18.9042 13.7093 19.6279 14.5307 19.6137 15.5235C19.6137 16.5235 18.9042 17.3377 17.9961 17.3377Z" fill="white"/>
</svg>
