<svg width="31" height="30" viewBox="0 0 31 30" fill="none" xmlns="http://www.w3.org/2000/svg">
<circle cx="15.5" cy="15" r="15" fill="#212121"/>
<g clip-path="url(#clip0_1254_6149)">
<path d="M23.4216 11.3775C23.3283 11.0265 23.1445 10.7061 22.8885 10.4485C22.6325 10.1908 22.3133 10.0049 21.9629 9.90938C20.6729 9.5625 15.5166 9.5625 15.5166 9.5625C15.5166 9.5625 10.3604 9.5625 9.07035 9.90938C8.71993 10.0049 8.40074 10.1908 8.14474 10.4485C7.88873 10.7061 7.70489 11.0265 7.6116 11.3775C7.2666 12.6731 7.2666 15.375 7.2666 15.375C7.2666 15.375 7.2666 18.0769 7.6116 19.3725C7.70489 19.7235 7.88873 20.0439 8.14474 20.3015C8.40074 20.5592 8.71993 20.7451 9.07035 20.8406C10.3604 21.1875 15.5166 21.1875 15.5166 21.1875C15.5166 21.1875 20.6729 21.1875 21.9629 20.8406C22.3133 20.7451 22.6325 20.5592 22.8885 20.3015C23.1445 20.0439 23.3283 19.7235 23.4216 19.3725C23.7666 18.0769 23.7666 15.375 23.7666 15.375C23.7666 15.375 23.7666 12.6731 23.4216 11.3775Z" fill="white"/>
<path d="M13.8291 17.8284V12.9216L18.1416 15.375L13.8291 17.8284Z" fill="#212121"/>
</g>
<defs>
<clipPath id="clip0_1254_6149">
<rect width="16.5" height="16.5" fill="white" transform="translate(7.25 7.125)"/>
</clipPath>
</defs>
</svg>
