<?xml version="1.0" encoding="UTF-8"?>
<svg xmlns="http://www.w3.org/2000/svg" viewBox="0 0 344.87 344.88">
  <defs>
    <style>
      .cls-1, .cls-2, .cls-3, .cls-4 {
        mix-blend-mode: multiply;
      }

      .cls-1, .cls-2, .cls-3, .cls-4, .cls-5 {
        stroke-width: 0px;
      }

      .cls-1, .cls-6 {
        fill: #7cb3e1;
      }

      .cls-2 {
        fill: #c9caca;
      }

      .cls-3, .cls-7 {
        fill: #fdd019;
      }

      .cls-4, .cls-8 {
        fill: #ed7123;
      }

      .cls-9 {
        isolation: isolate;
      }

      .cls-5 {
        fill: #0054a7;
      }

      .cls-8, .cls-7, .cls-10, .cls-6 {
        stroke: #1d2088;
        stroke-miterlimit: 10;
        stroke-width: 3.79px;
      }

      .cls-10 {
        fill: #fff;
      }
    </style>
  </defs>
  <g class="cls-9">
    <g id="_图层_2" data-name="图层 2">
      <g id="Capa_1" data-name="Capa 1">
        <g>
          <circle class="cls-5" cx="172.44" cy="172.44" r="172.44" transform="translate(-14.12 15.38) rotate(-4.91)"/>
          <g>
            <path class="cls-6" d="m205.98,147.52c-2.02,11.17-5.84,22.61-9.47,31.9,2.17-.1,6.27.29,8.33,4.41,2.85,5.71,8.29,17.81,11.76,25.59h3.14v-33.49c0-19.55-10.17-26.55-13.76-28.41Z"/>
            <path class="cls-6" d="m138.9,147.52c2.02,11.17,5.84,22.61,9.47,31.9-2.17-.1-6.28.29-8.33,4.41-2.86,5.71-8.3,17.81-11.76,25.59h-3.15v-33.49c0-19.55,10.18-26.55,13.76-28.41Z"/>
            <path class="cls-1" d="m138.9,147.52c2.02,11.17,5.84,22.61,9.47,31.9-2.17-.1-6.28.29-8.33,4.41-2.86,5.71-8.3,17.81-11.76,25.59h-3.15v-33.49c0-19.55,10.18-26.55,13.76-28.41Z"/>
            <path class="cls-10" d="m165.87,59.88c-10.15,12.63-29.12,40.56-29.12,72.94,0,28.21,19.75,66.59,19.75,66.59h31.21s19.74-38.37,19.74-66.59c0-32.31-18.91-60.2-29.06-72.86-3.73-4.65-8.81-4.68-12.51-.08Z"/>
            <rect class="cls-6" x="156.49" y="199.4" width="31.93" height="7.3"/>
            <path class="cls-7" d="m188.42,206.7s16.09,16.35,10.19,39.05c0,0-3.86-11.58-9.08-16.57,0,0,5.74,11.58-5.2,27.47-10.91,15.9-20,24.52-14.32,31.78,0,0-23.16-34.96-11.58-58.34,0,0-9.08,14.53-8.41,24.06,0,0-6.61-28.38,6.46-47.45h31.93Z"/>
            <path class="cls-3" d="m172,274.03v-67.33h-15.51c-13.07,19.07-6.46,47.45-6.46,47.45-.67-9.54,8.41-24.06,8.41-24.06-10.12,20.43,6.27,49.69,10.57,56.76-1.75-3.63-.27-7.67,3-12.81Z"/>
            <path class="cls-8" d="m161.83,206.7s-6.51,5.3-4.68,15.59c0,0,1.05-3.48,5.59-5.6,0,0-2.42,19.07,5.14,29.67,0,0,.46-15.74,6.96-18.01,6.52-2.27,13.32-11.05,9.54-21.64h-22.55Z"/>
            <path class="cls-4" d="m171.95,206.7h-10.12s-6.51,5.3-4.68,15.59c0,0,1.05-3.48,5.59-5.6,0,0-2.42,19.07,5.14,29.67,0,0,.31-10.69,4.07-15.72v-23.93Z"/>
            <path class="cls-2" d="m172.09,56.46c-2.08.13-4.14,1.27-5.89,3.42-10.26,12.63-29.45,40.56-29.45,72.94,0,28.21,19.97,66.59,19.97,66.59h15.38V56.46Z"/>
            <path class="cls-7" d="m172.09,77.98c6.04,0,11.67-1.46,16.33-3.94-3.63-5.74-7.19-10.51-10.05-14.08-3.73-4.65-8.81-4.68-12.51-.08-2.87,3.57-6.45,8.38-10.11,14.16,4.66,2.49,10.29,3.94,16.33,3.94Z"/>
            <path class="cls-3" d="m171.12,56.53c-.07.01-.14.03-.21.04-.07,0-.12.02-.19.04-.07.01-.14.03-.21.04-.06.02-.13.03-.19.06-.07.02-.13.03-.2.05-.05.02-.13.05-.2.07-.06.03-.12.04-.2.07-.05.03-.13.05-.19.08-.07.02-.14.05-.2.08-.07.03-.13.06-.2.09-.06.04-.13.07-.2.1-.06.03-.12.07-.19.1-.05.04-.13.07-.2.11-.06.04-.12.07-.19.11-.06.04-.12.09-.19.12-.06.04-.12.09-.19.12-.05.05-.13.1-.19.14-.06.04-.12.08-.18.14-.06.05-.12.1-.19.16-.06.04-.12.09-.18.15-.06.05-.12.11-.18.16-.06.06-.12.11-.19.16-.06.06-.12.13-.18.19-.05.06-.12.11-.18.17-.06.06-.12.14-.18.21-.06.05-.12.11-.17.17-.07.09-.14.18-.22.27-.04.04-.07.09-.11.12-.12.16-.26.33-.39.49-.03.05-.06.08-.1.13-.1.13-.21.27-.31.4-.08.09-.14.18-.21.28-.1.12-.2.25-.3.37-.07.11-.16.22-.25.33-.09.12-.18.24-.29.37-.1.12-.18.24-.27.35-.1.12-.2.25-.28.37-.11.14-.2.27-.31.4-.09.12-.17.23-.26.35-.12.16-.23.3-.35.46-.08.1-.15.2-.23.32-.15.2-.29.39-.45.59-.04.07-.1.13-.14.21-.2.27-.41.55-.61.84-.04.04-.07.08-.11.13-.16.25-.34.49-.52.73-.06.08-.11.16-.18.25-.14.21-.29.42-.44.64-.08.09-.13.19-.2.29-.15.21-.29.41-.44.62-.07.1-.13.2-.2.3-.15.21-.29.42-.44.65-.07.09-.13.19-.2.29-.16.23-.31.46-.47.7-.06.09-.12.17-.17.26-.19.27-.36.54-.55.81-.03.06-.05.12-.09.17-.45.67-.9,1.37-1.34,2.07,0,0-.02.02-.02.02,4.56,2.43,10.04,3.87,15.93,3.94v-21.51s-.02,0-.04,0c-.12,0-.23.02-.36.03-.06,0-.12.02-.18.02Z"/>
            <path class="cls-7" d="m194.67,127.93c0,12.47-10.11,22.58-22.58,22.58s-22.58-10.11-22.58-22.58,10.12-22.58,22.58-22.58,22.58,10.11,22.58,22.58Z"/>
            <path class="cls-3" d="m172.15,105.34h-.06c-12.46,0-22.58,10.11-22.58,22.58s10.12,22.58,22.58,22.58h.06v-45.16Z"/>
            <path class="cls-6" d="m188.82,127.93c0,9.25-7.49,16.74-16.73,16.74s-16.74-7.49-16.74-16.74,7.51-16.74,16.74-16.74,16.73,7.5,16.73,16.74Z"/>
            <path class="cls-1" d="m172.15,111.19s-.04,0-.06,0c-9.24,0-16.74,7.5-16.74,16.74s7.51,16.74,16.74,16.74h.06v-33.47Z"/>
            <g>
              <path class="cls-6" d="m170.62,215.35c.17,1.05.35,2.1.55,3.15h2.57c.2-1.05.37-2.09.55-3.15.47-2.92.82-5.83,1.11-8.75.55-5.83.79-11.67.79-17.5,0-5.83-.24-11.66-.79-17.5-.29-2.91-.64-5.83-1.11-8.75-.2-1.2-.41-2.41-.64-3.62h-2.37c-.24,1.21-.45,2.41-.64,3.62-.46,2.92-.84,5.83-1.1,8.75-.56,5.84-.81,11.67-.81,17.5s.23,11.66.79,17.5c.28,2.92.64,5.83,1.11,8.75Z"/>
              <path class="cls-1" d="m171.95,159.25h-.68c-.24,1.21-.45,2.41-.64,3.62-.46,2.92-.84,5.83-1.1,8.75-.56,5.84-.81,11.67-.81,17.5s.23,11.66.79,17.5c.28,2.92.64,5.83,1.11,8.75.17,1.05.35,2.1.55,3.15h.78v-59.25Z"/>
            </g>
          </g>
        </g>
      </g>
    </g>
  </g>
</svg>