<svg width="31" height="30" viewBox="0 0 31 30" fill="none" xmlns="http://www.w3.org/2000/svg">
<circle cx="15.5" cy="15" r="15" fill="#212121"/>
<path fill-rule="evenodd" clip-rule="evenodd" d="M6.93585 14.4041C11.5663 12.3867 14.6541 11.0567 16.199 10.4141C20.6102 8.57935 21.5268 8.26064 22.1242 8.25011C22.2556 8.2478 22.5494 8.28036 22.7397 8.43478C22.9004 8.56518 22.9446 8.74132 22.9658 8.86494C22.9869 8.98857 23.0133 9.27019 22.9923 9.49024C22.7533 12.0019 21.719 18.0969 21.1928 20.91C20.9701 22.1003 20.5317 22.4994 20.1072 22.5385C19.1848 22.6234 18.4844 21.9289 17.591 21.3432C16.193 20.4268 15.4032 19.8564 14.0462 18.9621C12.478 17.9287 13.4946 17.3607 14.3883 16.4324C14.6222 16.1895 18.6864 12.4928 18.7651 12.1575C18.7749 12.1155 18.784 11.9592 18.6911 11.8766C18.5983 11.7941 18.4612 11.8223 18.3623 11.8448C18.2221 11.8766 15.9887 13.3527 11.6623 16.2732C11.0284 16.7085 10.4542 16.9206 9.93977 16.9095C9.37263 16.8972 8.28168 16.5888 7.47067 16.3252C6.47593 16.0018 5.68534 15.8309 5.75418 15.2817C5.79004 14.9957 6.18393 14.7032 6.93585 14.4041Z" fill="white"/>
</svg>
