<svg width="44" height="44" viewBox="0 0 44 44" fill="none" xmlns="http://www.w3.org/2000/svg">
<g clip-path="url(#clip0_1291_3660)">
<path d="M7.8224 31.3446C8.07586 31.0858 8.42436 30.9349 8.79399 30.9349H42.3137C42.9262 30.9349 43.2325 31.6895 42.7995 32.1315L36.1779 38.8903C35.9245 39.149 35.576 39.2999 35.2064 39.2999H1.68662C1.0741 39.2999 0.76784 38.5453 1.20083 38.1034L7.8224 31.3446Z" fill="#34FC7A"/>
<path d="M7.82191 6.10958C8.08593 5.85087 8.43444 5.69995 8.7935 5.69995H42.3132C42.9258 5.69995 43.232 6.45452 42.799 6.89649L36.1775 13.6553C35.924 13.914 35.5755 14.0649 35.2059 14.0649H1.68613C1.07361 14.0649 0.767352 13.3103 1.20034 12.8684L7.82191 6.10958Z" fill="#34FC7A"/>
<path d="M36.1779 18.6462C35.9245 18.3875 35.576 18.2366 35.2064 18.2366H1.68662C1.0741 18.2366 0.76784 18.9911 1.20083 19.4331L7.8224 26.1919C8.07586 26.4506 8.42436 26.6015 8.79399 26.6015H42.3137C42.9262 26.6015 43.2325 25.847 42.7995 25.405L36.1779 18.6462Z" fill="#34FC7A"/>
</g>
<defs>
<clipPath id="clip0_1291_3660">
<rect width="42" height="33.6" fill="white" transform="translate(1 5.69995)"/>
</clipPath>
</defs>
</svg>
