<svg width="156" height="39" viewBox="0 0 156 39" fill="none" xmlns="http://www.w3.org/2000/svg">
<path d="M139.697 7.17578V28.2695H149.682V32.3125H135.039V7.17578H139.697Z" fill="black"/>
<path d="M110.412 19.6738C110.412 25.5215 113.008 28.4453 118.199 28.4453C123.262 28.4453 125.793 25.5215 125.793 19.6738C125.793 13.9199 123.262 11.043 118.199 11.043C113.008 11.043 110.412 13.9199 110.412 19.6738ZM105.578 19.7793C105.578 11.2598 109.785 7 118.199 7C126.484 7 130.627 11.2598 130.627 19.7793C130.627 28.252 126.484 32.4883 118.199 32.4883C110.16 32.4883 105.953 28.252 105.578 19.7793Z" fill="black"/>
<path d="M83.5176 31.2578V27.0391C86.0371 27.9766 88.8848 28.4453 92.0605 28.4453C95.916 28.4453 97.8438 27.1562 97.8438 24.5781C97.8438 22.7031 96.6602 21.7656 94.293 21.7656H90.3555C85.2109 21.7656 82.6387 19.4219 82.6387 14.7344C82.6387 9.57812 86.3008 7 93.625 7C96.4375 7 99.1035 7.41016 101.623 8.23047V12.4492C99.1035 11.5117 96.4375 11.043 93.625 11.043C89.4062 11.043 87.2969 12.2734 87.2969 14.7344C87.2969 16.6094 88.3164 17.5469 90.3555 17.5469H94.293C99.7656 17.5469 102.502 19.8906 102.502 24.5781C102.502 29.8516 99.0215 32.4883 92.0605 32.4883C88.8848 32.4883 86.0371 32.0781 83.5176 31.2578Z" fill="black"/>
<path d="M67.082 30.7305C74.0547 30.7305 77.541 26.8398 77.541 19.0586C77.541 12.1914 74.0547 8.75781 67.082 8.75781H60.1387V30.7305H67.082ZM58.293 32.3125V7.17578H67.2578C75.4609 7.17578 79.5625 11.1367 79.5625 19.0586C79.5625 27.8945 75.4023 32.3125 67.082 32.3125H58.293Z" fill="black"/>
<path d="M52.8613 7.17578V8.75781H38.2012V18.7773H52.2637V20.3594H38.2012V30.7305H53.1074V32.3125H36.3555V7.17578H52.8613Z" fill="black"/>
<path d="M29.834 7.17578V32.3125H27.9883V7.17578H29.834Z" fill="black"/>
<path d="M8.8457 7.17578V30.7305H23.4004V32.3125H7V7.17578H8.8457Z" fill="black"/>
</svg>
